<svg xmlns="http://www.w3.org/2000/svg" version="1.1" xmlns:xlink="http://www.w3.org/1999/xlink" xmlns:svgjs="http://svgjs.dev/svgjs" viewBox="0 0 1920 1080"><rect width="1920" height="1080" fill="#304f3a"></rect><g transform="matrix(0.9959292143521045,0.5749999999999998,-0.5749999999999998,0.9959292143521045,314.243767441101,-526.6103313531637)"><path d="M0,-1080C12.327202703491954,-1000.1338981675821,86.99443597955646,-780.599503097849,73.96321622095172,-600.8033890054926C60.93199646234699,-421.00727491313614,-63.53259467161796,-193.52697205838,-78.1873185516284,-1.2233154458612745C-92.84204243163883,191.08034116665743,-38.77178708048207,369.0000778162323,-13.965127059110912,553.0185506696197C10.841532962260246,737.0370235230071,74.59720945282325,913.7455507352275,70.65264157659854,1102.887521674463C66.70807370037383,1292.0294926136985,-25.85709405369274,1511.684963250776,-37.632534316459164,1687.8703763050323C-49.40797457922559,1864.0557893592886,-6.272089052743194,2081.311729384172,0,2160L 1920 2160 L 1920 -1080 Z" fill="url(&quot;#SvgjsLinearGradient1312&quot;)"></path><path d="M320,-1080C315.43864248817636,-946.7743442528478,293.8112793242892,-541.2934129927294,292.63185492905797,-280.6460655170868C291.4524305338267,-19.998718041444192,297.8755478096317,215.63429383544803,312.92345362861255,483.8840848538557C327.9713594475934,752.1338758722634,381.7398654477116,1049.500028069002,382.9192898429429,1328.8526805933593C384.0987142381741,1608.2053331177167,330.48654830715714,2021.4754467655598,320,2160L 1920 2160 L 1920 -1080 Z" fill="url(&quot;#SvgjsLinearGradient1313&quot;)"></path><path d="M640,-1080C641.1959323784455,-974.01104836485,649.7918592716431,-660.3323294657707,647.175594270673,-444.06629018909996C644.5593292697027,-227.80025091242922,632.009520103963,-8.017868421078873,624.3024099941788,217.59623566002432C616.5952998843945,443.21033974112754,586.142850512234,697.6138016041594,600.9329336119672,909.6183342975193C615.7230167117004,1121.6228669908792,706.5317308612395,1281.2264875364365,713.0429085925782,1489.6234318201832C719.554086323917,1698.02037610393,652.173818098763,2048.2705719700307,640,2160L 1920 2160 L 1920 -1080 Z" fill="url(&quot;#SvgjsLinearGradient1314&quot;)"></path><path d="M960,-1080C954.0181773153829,-981.0139480282365,934.958879097846,-657.4410925667027,924.1090638922975,-486.0836881694195C913.2592486867491,-314.7262837721363,877.9725261477505,-210.17894968933396,894.9011087667092,-51.85557361630072C911.8296913856678,106.46780245673253,1008.8804850242308,267.39818192009716,1025.6805596060494,463.85656826877994C1042.480634187868,660.3149546174627,1001.7794879109158,931.497192397891,995.701556257621,1126.894744475796C989.6236246043261,1322.292296553701,995.1632290625506,1464.057671482176,989.2129696862804,1636.2418807362099C983.2627103100102,1808.4260899902438,964.8688282810467,2072.7069801227017,960,2160L 1920 2160 L 1920 -1080 Z" fill="url(&quot;#SvgjsLinearGradient1315&quot;)"></path><path d="M1280,-1080C1278.274088066691,-1010.7563894591725,1260.3118570870151,-818.7328573131709,1269.644528400146,-664.5383367550348C1278.977199713277,-510.34381619689873,1331.6311083894766,-316.8248387009751,1335.9960278787864,-154.83287665118314C1340.3609473680963,7.159085398608767,1296.8971899258738,140.36529076100067,1295.8340453360058,307.4134355437167C1294.7709007461378,474.4615803264327,1326.205191217653,692.6240117380635,1329.6171603395787,847.4559920451129C1333.0291294615045,1002.2879723521623,1321.7794408354582,1086.6916399587462,1316.3058600675604,1236.4053173860132C1310.8322792996626,1386.11899481328,1302.8266524101186,1591.805609506383,1296.775675732192,1745.7380566087143C1290.7246990542653,1899.6705037110455,1282.7959459553654,2090.956342768119,1280,2160L 1920 2160 L 1920 -1080 Z" fill="url(&quot;#SvgjsLinearGradient1316&quot;)"></path><path d="M1600,-1080C1598.1910731123653,-945.3035966745358,1577.4115329568913,-531.8184214459106,1589.1464386741923,-271.82158004721487C1600.8813443914933,-11.824738648519087,1656.353649631409,205.40936368986019,1670.4094343038053,479.9810483921748C1684.4652189762014,754.5527330944894,1685.2160524258697,1095.6053695653686,1673.4811467085688,1375.6085281666728C1661.7462409912678,1655.611686767977,1612.2468577847615,2029.2680880277787,1600,2160L 1920 2160 L 1920 -1080 Z" fill="url(&quot;#SvgjsLinearGradient1317&quot;)"></path></g><defs><linearGradient x1="0.1" y1="0" x2="0" y2="1" id="SvgjsLinearGradient1312"><stop stop-color="#304f3a" offset="0"></stop><stop stop-color="#304f35" offset="0"></stop></linearGradient><linearGradient x1="0.1" y1="0" x2="0" y2="1" id="SvgjsLinearGradient1313"><stop stop-color="#487657" offset="0"></stop><stop stop-color="#48764f" offset="0.16666666666666666"></stop></linearGradient><linearGradient x1="0.1" y1="0" x2="0" y2="1" id="SvgjsLinearGradient1314"><stop stop-color="#5f9d73" offset="0"></stop><stop stop-color="#5f9d69" offset="0.3333333333333333"></stop></linearGradient><linearGradient x1="0.1" y1="0" x2="0" y2="1" id="SvgjsLinearGradient1315"><stop stop-color="#85b595" offset="0"></stop><stop stop-color="#85b58d" offset="0.5"></stop></linearGradient><linearGradient x1="0.1" y1="0" x2="0" y2="1" id="SvgjsLinearGradient1316"><stop stop-color="#accdb7" offset="0"></stop><stop stop-color="#accdb1" offset="0.6666666666666666"></stop></linearGradient><linearGradient x1="0.1" y1="0" x2="0" y2="1" id="SvgjsLinearGradient1317"><stop stop-color="#d3e4d9" offset="0"></stop><stop stop-color="#d3e4d6" offset="0.8333333333333334"></stop></linearGradient></defs></svg>